<svg width="40" height="40" viewBox="0 0 40 40" fill="none" xmlns="http://www.w3.org/2000/svg">
<rect width="40" height="40" rx="20" fill="#182252" fill-opacity="0.15"/>
<path d="M20.5059 20.086C20.5059 17.16 18.2939 15.088 15.5079 15.088C12.7499 15.088 10.4959 17.16 10.4959 20.086C10.4959 23.026 12.7499 25.098 15.5079 25.098C18.2799 25.098 20.5059 23.026 20.5059 20.086ZM12.5119 20.086C12.5119 18.098 13.7299 16.852 15.5079 16.852C17.2719 16.852 18.4899 18.098 18.4899 20.086C18.4899 22.074 17.2719 23.348 15.5079 23.348C13.7299 23.348 12.5119 22.074 12.5119 20.086ZM27.41 22.116C27.41 22.942 26.85 23.404 25.898 23.404H23.924V20.772H25.856C26.808 20.772 27.41 21.276 27.41 22.116ZM27.172 18.042C27.172 18.84 26.64 19.26 25.716 19.26H23.924V16.81H25.716C26.64 16.81 27.172 17.258 27.172 18.042ZM29.398 22.354C29.398 21.206 28.614 20.184 27.508 19.988C28.46 19.68 29.174 18.938 29.174 17.748C29.174 16.292 28.04 15.228 25.996 15.228H21.964V25H26.178C28.208 25 29.398 23.908 29.398 22.354Z" fill="#182252"/>
</svg>
