<svg width="69" height="96" viewBox="0 0 69 96" fill="none" xmlns="http://www.w3.org/2000/svg">
<path d="M21.0474 51L35.7709 57.2623L23.5 87.5L19 81L5.00013 88.7291L21.0474 51Z" fill="#B82837"/>
<path d="M48.4937 51L33.7701 57.2623L46.041 87.5L50.541 81L64.5409 88.7291L48.4937 51Z" fill="#B82837"/>
<path d="M26.6562 8.31821L29.9286 10.9543L32.007 7.30223L34.7023 10.526L37.4533 7.34967L39.4678 11.0373L42.7857 8.45871L44.042 12.4686L47.7992 10.5867L48.2492 14.7646L52.3012 13.652L51.9275 17.8374L56.1188 17.5366L54.9357 21.5687L59.1051 22.0914L57.1581 25.8152L61.1455 27.1412L58.5094 30.4136L62.1615 32.4921L58.9376 35.1873L62.114 37.9383L58.4263 39.9529L61.005 43.2707L56.9951 44.5271L58.8769 48.2842L54.699 48.7342L55.8117 52.7863L51.6263 52.4125L51.9271 56.6038L47.895 55.4207L47.3723 59.5902L43.6485 57.6432L42.3225 61.6305L39.0501 58.9945L36.9716 62.6465L34.2763 59.4227L31.5253 62.5991L29.5108 58.9114L26.193 61.49L24.9366 57.4802L21.1794 59.362L20.7295 55.1841L16.6774 56.2968L17.0511 52.1114L12.8599 52.4121L14.0429 48.3801L9.87352 47.8574L11.8205 44.1336L7.83316 42.8075L10.4692 39.5351L6.81717 37.4567L10.041 34.7614L6.86462 32.0104L10.5523 29.9959L7.97366 26.678L11.9835 25.4216L10.1017 21.6645L14.2796 21.2145L13.1669 17.1625L17.3523 17.5362L17.0516 13.3449L21.0836 14.528L21.6063 10.3586L25.3301 12.3056L26.6562 8.31821Z" fill="#B82837"/>
</svg>
