<svg width="117" height="117" viewBox="0 0 117 117" fill="none" xmlns="http://www.w3.org/2000/svg">
<path d="M49.1887 1.66685L52.9802 5.82003L55.7708 0.937678L59.0641 5.49599L62.393 0.963556L65.1453 5.86757L68.9692 1.74414L71.1445 6.92993L75.4134 3.26927L76.9835 8.66922L81.6419 5.51904L82.5861 11.0628L87.5733 8.46414L87.8794 14.0794L93.1303 12.0662L92.7943 17.6797L98.2404 16.2782L97.2668 21.8168L102.837 21.0452L101.239 26.4368L106.861 26.3052L104.658 31.4794L110.258 31.9895L107.48 36.8789L112.986 38.0241L109.668 42.5649L115.007 44.3302L111.194 48.4632L116.297 50.8257L112.037 54.4971L116.838 57.4259L112.188 60.5877L116.623 64.0447L111.642 66.6558L115.655 70.5959L110.409 72.6222L113.946 76.994L108.504 78.4092L111.52 83.1556L105.951 83.9412L108.406 89.0005L102.785 89.1462L104.647 94.4524L99.0456 93.9563L100.291 99.4402L94.7824 98.3088L95.3946 103.899L90.0509 102.147L90.0219 107.77L84.9127 105.421L84.2429 111.004L79.4349 108.088L78.1329 113.558L73.6887 110.112L71.7716 115.399L67.7492 111.469L65.2419 116.503L61.6937 112.14L58.629 116.855L55.6012 112.116L52.019 116.451L49.5512 111.398L45.4982 115.297L43.6224 109.995L39.1514 113.406L37.8923 107.925L33.0616 110.804L32.4354 105.216L27.308 107.525L27.323 101.902L21.9657 103.612L22.6216 98.0268L17.1043 99.1151L18.3926 93.6411L12.7872 94.0934L14.6911 88.8019L9.07072 88.6123L11.5653 83.5724L6.00322 82.7433L9.05609 78.0206L3.62473 76.5629L7.19606 72.2189L1.96626 70.1516L6.00948 66.2431L1.04943 63.5931L5.51184 60.1709L0.886193 56.9728L5.70961 54.0816L1.47867 50.3771L6.60022 48.0545L2.81915 43.8918L8.17207 42.1683L4.89015 37.6017L10.4046 36.4995L7.66467 31.5886L13.2689 31.1223L11.1065 25.931L16.7274 26.1065L15.1709 20.7027L20.7351 21.5177L19.8048 15.9717L25.2398 17.4157L24.9477 11.7997L30.1827 13.8539L30.5327 8.24125L35.4994 10.8788L36.4869 5.34259L41.1205 8.52908L42.7327 3.14156L46.9729 6.83548L49.1887 1.66685Z" fill="#B82837"/>
</svg>
