<svg width="24" height="24" viewBox="0 0 24 24" fill="none" xmlns="http://www.w3.org/2000/svg">
<rect width="24" height="24" rx="8" fill="#F2B12E" fill-opacity="0.1"/>
<g clip-path="url(#clip0_3432_98882)">
<path d="M11.9993 4.66669C7.95868 4.66669 4.66602 7.95935 4.66602 12C4.66602 16.0407 7.95868 19.3334 11.9993 19.3334C16.04 19.3334 19.3327 16.0407 19.3327 12C19.3327 7.95935 16.04 4.66669 11.9993 4.66669ZM11.4493 9.06669C11.4493 8.76602 11.6987 8.51669 11.9993 8.51669C12.3 8.51669 12.5493 8.76602 12.5493 9.06669V12.7334C12.5493 13.034 12.3 13.2834 11.9993 13.2834C11.6987 13.2834 11.4493 13.034 11.4493 12.7334V9.06669ZM12.674 15.212C12.6373 15.3074 12.586 15.3807 12.52 15.454C12.4467 15.52 12.366 15.5714 12.278 15.608C12.19 15.6447 12.0947 15.6667 11.9993 15.6667C11.904 15.6667 11.8087 15.6447 11.7207 15.608C11.6327 15.5714 11.552 15.52 11.4787 15.454C11.4127 15.3807 11.3613 15.3074 11.3247 15.212C11.288 15.124 11.266 15.0287 11.266 14.9334C11.266 14.838 11.288 14.7427 11.3247 14.6547C11.3613 14.5667 11.4127 14.486 11.4787 14.4127C11.552 14.3467 11.6327 14.2954 11.7207 14.2587C11.8967 14.1854 12.102 14.1854 12.278 14.2587C12.366 14.2954 12.4467 14.3467 12.52 14.4127C12.586 14.486 12.6373 14.5667 12.674 14.6547C12.7107 14.7427 12.7327 14.838 12.7327 14.9334C12.7327 15.0287 12.7107 15.124 12.674 15.212Z" fill="#F2B12E"/>
</g>
<rect x="4.5" y="4.5" width="15" height="15" rx="7.5" stroke="#F2B12E" stroke-opacity="0.5"/>
<defs>
<clipPath id="clip0_3432_98882">
<rect width="16" height="16" fill="white" transform="translate(4 4)"/>
</clipPath>
</defs>
</svg>
