<svg width="20" height="21" viewBox="0 0 20 21" fill="none" xmlns="http://www.w3.org/2000/svg">
<path d="M13.1677 2.34207C12.826 2.0004 12.2344 2.23373 12.2344 2.70873V5.61707C12.2344 6.83373 13.2677 7.84207 14.526 7.84207C15.3177 7.8504 16.4177 7.8504 17.3594 7.8504C17.8344 7.8504 18.0844 7.29207 17.751 6.95873C16.551 5.7504 14.401 3.5754 13.1677 2.34207Z" fill="#464E75"/>
<path d="M17.082 8.9915H14.6737C12.6987 8.9915 11.0904 7.38317 11.0904 5.40817V2.99984C11.0904 2.5415 10.7154 2.1665 10.257 2.1665H6.7237C4.15703 2.1665 2.08203 3.83317 2.08203 6.80817V14.1915C2.08203 17.1665 4.15703 18.8332 6.7237 18.8332H13.2737C15.8404 18.8332 17.9154 17.1665 17.9154 14.1915V9.82484C17.9154 9.3665 17.5404 8.9915 17.082 8.9915ZM9.58203 15.2915H6.2487C5.90703 15.2915 5.6237 15.0082 5.6237 14.6665C5.6237 14.3248 5.90703 14.0415 6.2487 14.0415H9.58203C9.9237 14.0415 10.207 14.3248 10.207 14.6665C10.207 15.0082 9.9237 15.2915 9.58203 15.2915ZM11.2487 11.9582H6.2487C5.90703 11.9582 5.6237 11.6748 5.6237 11.3332C5.6237 10.9915 5.90703 10.7082 6.2487 10.7082H11.2487C11.5904 10.7082 11.8737 10.9915 11.8737 11.3332C11.8737 11.6748 11.5904 11.9582 11.2487 11.9582Z" fill="#464E75"/>
</svg>
