<svg width="20" height="20" viewBox="0 0 20 20" fill="none" xmlns="http://www.w3.org/2000/svg">
<g clip-path="url(#clip0_1785_2172)">
<path d="M15.25 2.5C15.664 2.5 16 2.836 16 3.25V6.06775L9.25075 12.8177L9.24625 15.9962L12.4308 16.0007L16 12.4315V16.75C16 17.164 15.664 17.5 15.25 17.5H3.25C2.836 17.5 2.5 17.164 2.5 16.75C2.5 16.75 2.5 3.664 2.5 3.25C2.5 2.836 2.836 2.5 3.25 2.5H15.25ZM16.5835 7.606L17.644 8.6665L11.8105 14.5L10.7485 14.4985L10.75 13.4395L16.5835 7.606ZM9.25 10H5.5V11.5H9.25V10ZM11.5 7H5.5V8.5H11.5V7Z" fill="white"/>
</g>
<defs>
<clipPath id="clip0_1785_2172">
<rect width="20" height="20" fill="white"/>
</clipPath>
</defs>
</svg>
