<svg width="41" height="42" viewBox="0 0 41 42" fill="none" xmlns="http://www.w3.org/2000/svg">
<path d="M39.1217 18.478L36.4017 15.318C35.8817 14.718 35.4617 13.598 35.4617 12.798V9.39804C35.4617 7.27804 33.7217 5.53804 31.6017 5.53804H28.2017C27.4217 5.53804 26.2817 5.11804 25.6817 4.59804L22.5217 1.87804C21.1417 0.698042 18.8817 0.698042 17.4817 1.87804L14.3417 4.61804C13.7417 5.11804 12.6017 5.53804 11.8217 5.53804H8.36172C6.24172 5.53804 4.50172 7.27804 4.50172 9.39804V12.818C4.50172 13.598 4.08172 14.718 3.58172 15.318L0.881719 18.498C-0.278281 19.878 -0.278281 22.118 0.881719 23.498L3.58172 26.678C4.08172 27.278 4.50172 28.398 4.50172 29.178V32.598C4.50172 34.718 6.24172 36.458 8.36172 36.458H11.8217C12.6017 36.458 13.7417 36.878 14.3417 37.398L17.5017 40.118C18.8817 41.298 21.1417 41.298 22.5417 40.118L25.7017 37.398C26.3017 36.878 27.4217 36.458 28.2217 36.458H31.6217C33.7417 36.458 35.4817 34.718 35.4817 32.598V29.198C35.4817 28.418 35.9017 27.278 36.4217 26.678L39.1417 23.518C40.3017 22.138 40.3017 19.858 39.1217 18.478ZM28.3217 17.218L18.6617 26.878C18.3805 27.1589 17.9992 27.3167 17.6017 27.3167C17.2042 27.3167 16.823 27.1589 16.5417 26.878L11.7017 22.038C11.4228 21.7558 11.2663 21.3749 11.2663 20.978C11.2663 20.5812 11.4228 20.2003 11.7017 19.918C12.2817 19.338 13.2417 19.338 13.8217 19.918L17.6017 23.698L26.2017 15.098C26.7817 14.518 27.7417 14.518 28.3217 15.098C28.9017 15.678 28.9017 16.638 28.3217 17.218Z" fill="#5C993D"/>
</svg>
